<?xml version="1.0" standalone="no"?>
<!DOCTYPE svg PUBLIC "-//W3C//DTD SVG 20010904//EN"
 "http://www.w3.org/TR/2001/REC-SVG-20010904/DTD/svg10.dtd">
<svg version="1.0" xmlns="http://www.w3.org/2000/svg"
 width="138.000000pt" height="26.000000pt" viewBox="0 0 138.000000 26.000000"
 preserveAspectRatio="xMidYMid meet">

<g transform="translate(0.000000,26.000000) scale(0.100000,-0.100000)"
fill="#000000" stroke="none">
<path d="M610 132 l0 -69 43 1 42 1 0 45 c0 42 -2 45 -27 48 -20 2 -28 9 -28
23 0 10 -7 19 -15 19 -12 0 -15 -14 -15 -68z m67 -12 c4 -21 -13 -44 -26 -36
-6 4 -11 18 -11 32 0 19 5 25 17 22 10 -2 19 -10 20 -18z"/>
<path d="M980 180 c0 -14 -7 -20 -23 -20 -30 0 -47 -18 -47 -51 0 -34 17 -48
58 -47 l32 1 0 69 c0 39 -4 68 -10 68 -5 0 -10 -9 -10 -20z m-5 -70 c0 -36
-29 -33 -33 3 -3 23 0 28 15 25 12 -2 18 -12 18 -28z"/>
<path d="M1250 130 c0 -69 11 -91 24 -47 l7 22 16 -22 c8 -13 22 -23 30 -23
12 0 11 5 -3 30 -17 28 -17 30 1 50 25 28 -1 27 -32 -2 l-23 -21 0 41 c0 23
-4 42 -10 42 -6 0 -10 -30 -10 -70z"/>
<path d="M300 126 l0 -66 34 0 c44 0 54 15 53 75 l-2 50 -42 3 -43 3 0 -65z
m60 29 c0 -8 -9 -15 -20 -15 -11 0 -20 7 -20 15 0 8 9 15 20 15 11 0 20 -7 20
-15z m0 -49 c0 -20 -19 -31 -32 -18 -6 6 -7 15 -4 21 10 16 36 13 36 -3z"/>
<path d="M420 151 c0 -6 11 -11 25 -11 34 0 32 -18 -2 -22 -22 -2 -28 -8 -28
-28 0 -23 4 -25 43 -26 l43 -1 -3 46 c-3 45 -4 46 -40 49 -22 2 -38 -1 -38 -7z
m50 -56 c0 -8 -7 -15 -15 -15 -16 0 -20 12 -8 23 11 12 23 8 23 -8z"/>
<path d="M530 108 c0 -26 5 -48 10 -48 6 0 10 13 10 30 0 19 7 34 20 42 28 18
25 27 -10 26 -29 -1 -30 -3 -30 -50z"/>
<path d="M732 148 c-30 -30 -5 -88 38 -88 37 0 49 18 13 22 -39 4 -42 28 -3
28 27 0 31 3 28 23 -2 16 -11 23 -33 25 -17 2 -36 -3 -43 -10z m53 -18 c3 -5
-3 -10 -14 -10 -12 0 -21 5 -21 10 0 6 6 10 14 10 8 0 18 -4 21 -10z"/>
<path d="M840 108 c0 -26 5 -48 10 -48 6 0 10 16 10 36 0 27 5 37 20 41 30 8
24 22 -10 21 -29 -1 -30 -3 -30 -50z"/>
<path d="M1030 123 c0 -52 10 -63 53 -61 l37 1 0 49 c0 26 -4 48 -10 48 -5 0
-10 -11 -10 -24 0 -35 -10 -56 -26 -56 -10 0 -14 12 -14 40 0 29 -4 40 -15 40
-11 0 -15 -11 -15 -37z"/>
<path d="M1157 153 c-14 -14 -7 -81 9 -87 24 -9 54 -7 54 4 0 6 -9 10 -19 10
-20 0 -37 32 -26 50 3 5 15 10 26 10 10 0 19 5 19 10 0 11 -53 14 -63 3z"/>
</g>
</svg>
